<?xml version="1.0" encoding="utf-8"?>
<!-- Generator: Adobe Illustrator 19.0.0, SVG Export Plug-In . SVG Version: 6.00 Build 0)  -->
<svg version="1.1" id="Layer_1" xmlns="http://www.w3.org/2000/svg" xmlns:xlink="http://www.w3.org/1999/xlink" x="0px" y="0px"
	 viewBox="-795 420.2 407.3 160.8" style="enable-background:new -795 420.2 407.3 160.8;" xml:space="preserve">
<style type="text/css">
	.st0{fill:#FFFFFF;}
</style>
<title>PoweredByRectangle_Blue</title>
<polygon class="st0" points="-744.6,522.7 -737.7,522.7 -737.7,494.9 -729,494.9 -729,488 -753.3,488 -753.3,494.9 -744.6,494.9 "/>
<polygon class="st0" points="-706.5,522.7 -699.5,522.7 -699.5,488 -706.5,488 -706.5,501.8 -716.9,501.8 -716.9,488 -723.8,488 
	-723.8,522.7 -716.9,522.7 -716.9,508.8 -706.5,508.8 "/>
<polygon class="st0" points="-673.8,515.7 -686.8,515.7 -686.8,508.8 -675.7,508.8 -675.7,501.8 -686.8,501.8 -686.8,494.9 
	-674.3,494.9 -674.3,488 -693.7,488 -693.7,522.7 -673.8,522.7 "/>
<polygon class="st0" points="-637.2,502.7 -650.9,487.5 -653.1,487.5 -653.1,522.7 -646.1,522.7 -646.1,503.4 -637.2,512.7 
	-628.3,503.4 -628.4,522.7 -621.3,522.7 -621.3,487.5 -623.5,487.5 "/>
<path class="st0" d="M-597.8,487.4c-23.9,0-23.9,35.8,0,35.8S-573.9,487.4-597.8,487.4z M-597.8,516c-13.9,0-13.9-21.4,0-21.4
	S-583.9,516-597.8,516z"/>
<rect x="-540.5" y="488" class="st0" width="6.9" height="34.7"/>
<polygon class="st0" points="-520.8,515.8 -520.8,508.9 -509.7,508.9 -509.7,501.9 -520.8,501.9 -520.8,495 -508.4,495 -508.4,488 
	-527.8,488 -527.8,522.7 -507.8,522.7 -507.8,515.8 "/>
<path class="st0" d="M-477.4,488.4h-10.3v34.7h10.3C-454.3,523.1-454.3,488.4-477.4,488.4z M-477.4,516.2h-3.4v-20.8h3.4
	C-463.9,495.4-463.9,516.2-477.4,516.2z"/>
<path class="st0" d="M-434.2,505.7c2.2-1.5,3.1-4.2,3.2-6.8c0.1-6.1-3.7-10.5-9.9-10.5h-13.7v34.8h13.7c5.7,0,10.3-4.7,10.2-10.4
	c0,0,0,0,0,0C-430.7,509.9-432,507.3-434.2,505.7z M-447.6,495.3h6.2c1.9,0.1,3.4,1.8,3.2,3.8c-0.1,1.7-1.5,3.1-3.2,3.2h-6.2V495.3z
	 M-441.5,516.2h-6.2v-6.9h6.2c1.9,0,3.4,1.4,3.5,3.3c0,0,0,0.1,0,0.1C-437.9,514.6-439.5,516.2-441.5,516.2
	C-441.4,516.2-441.4,516.2-441.5,516.2L-441.5,516.2z"/>
<polygon class="st0" points="-561.9,506.8 -571,488 -579,488 -562.6,523.5 -561.1,523.5 -544.7,488 -552.7,488 "/>
<path class="st0" d="M-412.1,566.4c14.6,0,24.5-9.9,24.5-24.5v-97.3c0-14.6-9.9-24.5-24.5-24.5h-358.4c-14.6,0-24.5,9.9-24.5,24.5
	V581l12.6-14.6l0,0V444.7c0-6.6,5.3-11.9,11.9-11.9h358.4c6.6,0,11.9,5.3,11.9,11.9V542c0,6.6-5.3,11.9-11.9,11.9h-339.8l-12.6,12.6
	l-0.1-0.1L-412.1,566.4z"/>
<path class="st0" d="M-752.6,473v-15h5.9c5.8,0,5.8,9.3,0,9.3h-2.9v5.7L-752.6,473L-752.6,473z M-747,464.4c2,0,2-3.4,0-3.4h-2.6
	v3.4H-747z"/>
<path class="st0" d="M-730.9,457.8c10.3,0,10.3,15.5,0,15.5S-741.2,457.8-730.9,457.8z M-730.9,460.9c-6,0-6,9.3,0,9.3
	S-724.8,460.9-730.9,460.9L-730.9,460.9z"/>
<path class="st0" d="M-713.8,473.4L-720,458h3.4l3,7.7l2.9-7.5h0.1l2.9,7.5l3-7.7h3.4l-6.1,15.3h-0.6l-2.8-6.7l-2.7,6.7
	L-713.8,473.4L-713.8,473.4z"/>
<path class="st0" d="M-697.4,473v-15h7.5v3h-4.5v3h3.9v3h-3.9v3h4.8v3H-697.4L-697.4,473z"/>
<path class="st0" d="M-677.5,473l-3-5.7h-1.5v5.7h-3v-15h5.9c5.4,0,5.9,7.5,1.5,8.8l3.5,6.2L-677.5,473L-677.5,473z M-681.9,464.4
	h2.6c2,0,2-3.4,0-3.4h-2.6V464.4z"/>
<path class="st0" d="M-670.2,473v-15h7.5v3h-4.5v3h3.9v3h-3.9v3h4.8v3H-670.2L-670.2,473z"/>
<path class="st0" d="M-653.2,473h-4.5v-15h4.5C-643.2,458-643.2,473-653.2,473z M-654.7,461v9h1.5c5.8,0,5.8-9,0-9H-654.7z"/>
<path class="st0" d="M-615,466.3l-5.2-8.3h3.6l3.1,5.2l3.1-5.2h3.7l-5.3,8.3v6.8h-3L-615,466.3L-615,466.3z"/>
<path class="st0" d="M-624.3,465.7c0.9-0.7,1.4-1.8,1.4-3c0.2-2.3-1.4-4.3-3.7-4.5c-0.2,0-0.4,0-0.6,0h-5.9v15h5.9
	c2.5,0,4.4-2,4.4-4.5c0,0,0,0,0,0C-622.8,467.4-623.4,466.4-624.3,465.7z M-630.1,461.2h2.7c0.8,0.1,1.4,0.9,1.3,1.7
	c-0.1,0.6-0.6,1.1-1.3,1.3h-2.7V461.2z M-627.5,470.2h-2.7v-3h2.7c0.8,0,1.5,0.6,1.5,1.4c0,0,0,0,0,0.1
	C-625.9,469.5-626.6,470.2-627.5,470.2C-627.4,470.2-627.5,470.2-627.5,470.2L-627.5,470.2z"/>
</svg>
